<?xml version="1.0" encoding="UTF-8"?>
<svg xmlns="http://www.w3.org/2000/svg" xmlns:xlink="http://www.w3.org/1999/xlink" viewBox="0 0 2001 2004.5595">
  <defs>
    <style>
      .cls-1 {
        opacity: .85;
      }

      .cls-2 {
        fill: #bcbcbc;
      }

      .cls-2, .cls-3, .cls-4, .cls-5, .cls-6 {
        mix-blend-mode: lighten;
      }

      .cls-7 {
        fill: #fff;
      }

      .cls-8 {
        stroke-width: 16px;
      }

      .cls-8, .cls-9, .cls-10 {
        stroke: #fff;
        stroke-miterlimit: 10;
      }

      .cls-8, .cls-11, .cls-10 {
        fill: none;
      }

      .cls-12 {
        opacity: .98;
      }

      .cls-9 {
        stroke-width: 15px;
      }

      .cls-3 {
        fill: red;
      }

      .cls-13 {
        isolation: isolate;
      }

      .cls-4 {
        fill: lime;
      }

      .cls-5 {
        fill: #f0f;
      }

      .cls-14 {
        fill: url(#linear-gradient);
      }

      .cls-6 {
        fill: #00b1ff;
      }

      .cls-10 {
        stroke-width: 20px;
      }
    </style>
    <linearGradient id="linear-gradient" x1="1416.7185" y1="1585.1305" x2="1711.457" y2="485.1517" gradientUnits="userSpaceOnUse">
      <stop offset="0" stop-color="#f0f"/>
      <stop offset=".1302" stop-color="blue"/>
      <stop offset=".1426" stop-color="#02f"/>
      <stop offset=".1654" stop-color="#005cff"/>
      <stop offset=".1883" stop-color="#008dff"/>
      <stop offset=".2106" stop-color="#00b6ff"/>
      <stop offset=".2324" stop-color="#00d6ff"/>
      <stop offset=".2534" stop-color="#00ecff"/>
      <stop offset=".2733" stop-color="#00faff"/>
      <stop offset=".291" stop-color="aqua"/>
      <stop offset=".3091" stop-color="#00fff8"/>
      <stop offset=".3348" stop-color="#00ffe5"/>
      <stop offset=".3649" stop-color="#00ffc7"/>
      <stop offset=".3985" stop-color="#00ff9d"/>
      <stop offset=".4348" stop-color="#0f6"/>
      <stop offset=".473" stop-color="#00ff25"/>
      <stop offset=".4932" stop-color="lime"/>
      <stop offset=".5052" stop-color="#23ff00"/>
      <stop offset=".5246" stop-color="#56ff00"/>
      <stop offset=".545" stop-color="#83ff00"/>
      <stop offset=".5659" stop-color="#a9ff00"/>
      <stop offset=".5875" stop-color="#c8ff00"/>
      <stop offset=".6099" stop-color="#e0ff00"/>
      <stop offset=".6336" stop-color="#f1ff00"/>
      <stop offset=".6593" stop-color="#fbff00"/>
      <stop offset=".691" stop-color="#ff0"/>
      <stop offset=".7051" stop-color="#ffeb00"/>
      <stop offset=".7524" stop-color="#ffad00"/>
      <stop offset=".7993" stop-color="#ff7800"/>
      <stop offset=".8448" stop-color="#ff4d00"/>
      <stop offset=".8884" stop-color="#ff2b00"/>
      <stop offset=".9298" stop-color="#ff1300"/>
      <stop offset=".968" stop-color="#ff0500"/>
      <stop offset="1" stop-color="red"/>
    </linearGradient>
  </defs>
  <g class="cls-13">
    <g id="bkgd">
      <path d="M.5.5v2000h2000V.5H.5ZM723.07,1497.9376c-274.2937,0-496.6526-222.359-496.6526-496.6526s222.3589-496.6526,496.6526-496.6526v993.3053Z"/>
    </g>
    <g id="text">
      <g>
        <path class="cls-7" d="M596.958,215.0391v-76.7998l13.4092-14.1001h51.9229v15.8999h-48.5v73.2002h49.9268v15.8999h-53.3496l-13.4092-14.1001Z"/>
        <path class="cls-7" d="M674.9834,214.439v-54.5996l13.9795-14.7002h43.3643l13.9795,14.7002v54.5996l-13.9795,14.7002h-43.3643l-13.9795-14.7002ZM691.5303,214.439h38.2295v-54.5996h-38.2295v54.5996Z"/>
        <path class="cls-7" d="M761.4268,145.1392h99.8525l15.4053,16.2002v67.7998h-16.4043v-69.1499h-33.0938v69.1499h-16.2617v-69.1499h-33.0938v69.1499h-16.4043v-84Z"/>
        <path class="cls-7" d="M892.6611,250.1392v-105h58.7705l14.5498,15.2998v53.4004l-14.5498,15.2998h-42.2236v21h-16.5469ZM949.4346,160.1392h-40.2266v54h40.2266v-54Z"/>
        <path class="cls-7" d="M980.2451,214.439v-54.5996l13.9795-14.7002h55.917v46.7998h-53.3496v22.2002h50.4961v15h-53.0635l-13.9795-14.7002ZM996.792,180.8394l38.3711-1.5v-19.8003h-38.3711v21.3003Z"/>
        <path class="cls-7" d="M1065.2617,131.6392l16.5469-7.5v24h33.9502v15h-33.9502v51h33.9502v15h-36.2324l-14.2646-15v-82.5Z"/>
        <path class="cls-7" d="M1126.5986,135.5391v-13.5h16.5469v13.5h-16.5469ZM1126.5986,229.1392v-84h16.5469v84h-16.5469Z"/>
        <path class="cls-7" d="M1159.1221,131.6392l16.5469-7.5v24h33.9502v15h-33.9502v51h33.9502v15h-36.2324l-14.2646-15v-82.5Z"/>
        <path class="cls-7" d="M1220.459,135.5391v-13.5h16.5469v13.5h-16.5469ZM1220.459,229.1392v-84h16.5469v84h-16.5469Z"/>
        <path class="cls-7" d="M1267.3887,229.1392l-20.9688-84h16.832l16.2617,69h13.8369l16.2617-69h16.6895l-20.9688,84h-37.9443Z"/>
        <path class="cls-7" d="M1334.8584,214.439v-54.5996l13.9795-14.7002h55.918v46.7998h-53.3496v22.2002h50.4961v15h-53.0645l-13.9795-14.7002ZM1351.4062,180.8394l38.3711-1.5v-19.8003h-38.3711v21.3003Z"/>
        <path class="cls-7" d="M608.3711,283.2168v54.2998l-13.4082,14.1001h-45.6475v22.5h-16.5469v-105h62.1943l13.4082,14.1001ZM549.3154,336.9165h42.5088v-53.0996h-42.5088v53.0996Z"/>
        <path class="cls-7" d="M621.4941,374.1167v-69l14.2646-15h41.9375v15.6001h-39.6553v68.3999h-16.5469Z"/>
        <path class="cls-7" d="M687.6797,359.4165v-54.5996l13.9795-14.7002h43.3643l13.9795,14.7002v54.5996l-13.9795,14.7002h-43.3643l-13.9795-14.7002ZM704.2266,359.4165h38.2295v-54.5996h-38.2295v54.5996Z"/>
        <path class="cls-7" d="M778.1162,395.1167v-15h50.4971v-18h-41.3672l-13.9795-14.7002v-42.5996l15.1201-14.7002h56.7734v88.7998l-15.4062,16.2002h-51.6377ZM789.8135,305.1167v42.2998h38.7998v-42.2998h-38.7998Z"/>
        <path class="cls-7" d="M861.1348,374.1167v-69l14.2646-15h41.9375v15.6001h-39.6553v68.3999h-16.5469Z"/>
        <path class="cls-7" d="M926.75,359.1167v-33l54.4912-1.5v-19.5h-51.6387v-15h53.9209l14.2646,15v69h-56.7734l-14.2646-15ZM943.2969,338.7168v20.6997h37.9443v-23.6997l-37.9443,3Z"/>
        <path class="cls-7" d="M1013.7637,290.1167h99.8525l15.4053,16.2002v67.7998h-16.4043v-69.1499h-33.0938v69.1499h-16.2617v-69.1499h-33.0938v69.1499h-16.4043v-84Z"/>
        <path class="cls-7" d="M1144.998,290.1167h99.8525l15.4053,16.2002v67.7998h-16.4043v-69.1499h-33.0938v69.1499h-16.2617v-69.1499h-33.0938v69.1499h-16.4043v-84Z"/>
        <path class="cls-7" d="M1276.2324,280.5166v-13.5h16.5469v13.5h-16.5469ZM1276.2324,374.1167v-84h16.5469v84h-16.5469Z"/>
        <path class="cls-7" d="M1308.7549,374.1167v-84h58.1992l14.2646,15v69h-16.5469v-68.7002h-39.3701v68.7002h-16.5469Z"/>
        <path class="cls-7" d="M1401.1895,395.1167v-15h50.4971v-18h-41.3682l-13.9795-14.7002v-42.5996l15.1211-14.7002h56.7734v88.7998l-15.4062,16.2002h-51.6377ZM1412.8867,305.1167v42.2998h38.7998v-42.2998h-38.7998Z"/>
      </g>
      <g>
        <path class="cls-7" d="M738.1528,1755.6094v-15.2998h60.6001v-28.7998l-62.1001-4.9502v-42.1504l13.7998-13.7998h64.2002v15.2998h-60.6001v27.2998l62.1001,4.9502v43.6504l-13.7998,13.7998h-64.2002Z"/>
        <path class="cls-7" d="M831.9028,1740.9092v-54.5996l14.7002-14.7002h45.5996l14.7002,14.7002v54.5996l-14.7002,14.7002h-45.5996l-14.7002-14.7002ZM849.3027,1740.9092h40.2002v-54.5996h-40.2002v54.5996Z"/>
        <path class="cls-7" d="M921.9014,1740.9092v-54.5996l14.7002-14.7002h54.6001v15.5996h-51.9004v52.8008h51.9004v15.5996h-54.6001l-14.7002-14.7002Z"/>
        <path class="cls-7" d="M1003.8008,1662.0098v-13.5h17.3994v13.5h-17.3994ZM1003.8008,1755.6094v-84h17.3994v84h-17.3994Z"/>
        <path class="cls-7" d="M1037.1006,1740.9092v-54.5996l14.7002-14.7002h58.7998v46.7998h-56.0996v22.2002h53.0996v15h-55.7998l-14.7002-14.7002ZM1054.501,1707.3096l40.3496-1.5v-19.7998h-40.3496v21.2998Z"/>
        <path class="cls-7" d="M1126.5,1658.1094l17.3994-7.5v24h35.7002v15h-35.7002v51h35.7002v15h-38.0996l-15-15v-82.5Z"/>
        <path class="cls-7" d="M1188.749,1776.6094v-15h38.5498l5.3994-18h-25.7998l-22.7998-72h17.7002l17.7002,57.2998h17.0996l16.9502-57.2998h17.5498l-31.5,105h-50.8496Z"/>
      </g>
      <g>
        <path class="cls-7" d="M865.8623,1919.8584v-96.96h18.5601v95.3604h48.96v-95.3604h18.5601v96.96l-15.04,15.04h-56l-15.04-15.04Z"/>
        <path class="cls-7" d="M969.7012,1919.8584v-81.9199l15.04-15.04h58.2402v16.96h-54.3999v78.0801h56.0005v16.96h-59.8408l-15.04-15.04Z"/>
        <path class="cls-7" d="M1058.1797,1934.8984v-112h18.5596v96h45.6006v-28.7998h17.1191v44.7998h-81.2793Z"/>
      </g>
    </g>
    <g id="C_shade" data-name="C shade" class="cls-1">
      <path class="cls-4" d="M723.07,1437.64v-872.42l-140.68,436.31-54.21,168.13-59.93,185.86v.01l47.28,34.4099-33.4,45.8801c54.66,30.3899,115.64,50.75,180.49,58.6099v-56.7899h60.45"/>
      <path class="cls-2" d="M405.72,1001.27l-97.83,134.41-18.47-56.89-53.94,17.52c-5.95-30.71-9.06-62.43-9.06-94.88s3.11-64.16,9.06-94.87l53.94,17.51,18.57-57.18,97.73,134.3799Z"/>
      <path class="cls-3" d="M723.07,565.22v872.42l-140.68-436.11-54.32-168.39-59.91-185.7401,47.3701-34.48-33.4-45.88c54.66-30.39,115.64-50.75,180.49-58.61v56.79h60.45"/>
      <path class="cls-5" d="M528.07,833.14l-122.35,168.1299-97.83,134.41,18.86,58.09-53.95,17.5201c27.15,58.1499,65.23,110.1599,111.6,153.3999l33.4-45.8899,50.45,36.72,59.93-185.86,54.21-168.13,140.68-436.31-195,267.92Z"/>
      <path class="cls-6" d="M582.39,1001.53l-54.32-168.39-59.91-185.7401-50.36,36.66-33.4-45.89c-46.37,43.24-84.45,95.25-111.6,153.4l53.95,17.52-18.76,57.8,97.73,134.3799,122.46,168.39,194.89,267.98-140.68-436.11Z"/>
    </g>
    <g id="S_shade" data-name="S shade" class="cls-12">
      <path class="cls-14" d="M1179.6511,1370.3435l40.3396-6.4094,25.7756,162.2273-40.3396,6.4094-25.7756-162.2273ZM1297.6334,1512.4012l40.2268-7.0833-26.7327-151.8181-40.2268,7.0833,26.7327,151.8181ZM1390.2614,1491.7505l40.034-8.1024-29.1199-143.8818-40.034,8.1024,29.1199,143.8818ZM1483.8858,1468.3277l38.4918-9.4752-33.4683-135.9608-38.4918,9.4752,33.4683,135.9608ZM1577.6679,1439.1268l37.6423-12.428-41.3341-125.1936-37.6423,12.428,41.3341,125.1936ZM1672.476,1396.6257l34.8618-18.8693-56.7923-104.926-34.8618,18.8693,56.7923,104.926ZM1769.4847,1322.5389l20.902-32.422-96.8686-62.4496-20.902,32.422,96.8686,62.4496ZM1807.0426,1203.3015l-1.4452-38.5486-108.418,4.0646,1.4452,38.5486,108.418-4.0646ZM1784.0583,1089.2776l-17.6912-33.0311-89.0855,47.7135,17.6912,33.0311,89.0855-47.7135ZM1720.5664,1000.9757l-27.2376-25.7321-69.4001,73.4605,27.2376,25.7321,69.4001-73.4605ZM1650.382,939.6299l-27.3683-25.5931-67.1783,71.838,27.3683,25.5931,67.1783-71.838ZM1592.7396,882.8463l-18.7796-30.6021-80.9479,49.6752,18.7796,30.6021,80.9479-49.6752ZM1560.3392,817.2976l-3.9625-34.642-90.3298,10.3324,3.9625,34.642,90.3298-10.3324ZM1558.6835,746.107l12.8136-32.4281-81.2564-32.1077-12.8136,32.4281,81.2564,32.1077ZM1593.328,680.9774l24.6837-21.9276-54.9951-61.9076-24.6837,21.9276,54.9951,61.9076ZM1658.0452,632.5738l29.9858-13.8187-33.3846-72.4428-29.9858,13.8187,33.3846,72.4428ZM1737.6511,599.4474l31.9125-8.4673-19.4161-73.1773-31.9125,8.4673,19.4161,73.1773Z"/>
    </g>
    <g id="strokes">
      <g>
        <path class="cls-10" d="M723.068,1498.0821c-274.2926,0-496.6506-222.358-496.6506-496.6506s222.358-496.6506,496.6506-496.6506"/>
        <rect class="cls-9" x="662.6246" y="1437.6387" width="120.8867" height="120.8867" transform="translate(1446.1359 2996.1642) rotate(180)"/>
        <rect class="cls-9" x="370.6519" y="1342.7948" width="120.8867" height="120.8867" transform="translate(-46.1785 2791.4492) rotate(-143.9491)"/>
        <rect class="cls-9" x="190.1549" y="1094.5049" width="120.8867" height="120.8867" transform="translate(-770.5032 1749.975) rotate(-107.9885)"/>
        <rect class="cls-9" x="190.1549" y="787.4714" width="120.8867" height="120.8867" transform="translate(-633.2604 824.4048) rotate(-72.0115)"/>
        <rect class="cls-9" x="370.6519" y="539.1815" width="120.8867" height="120.8867" transform="translate(-270.3245 368.5332) rotate(-36.0509)"/>
        <rect class="cls-9" x="662.6246" y="444.3375" width="120.8867" height="120.8867"/>
      </g>
      <g>
        <g>
          <circle class="cls-8" cx="962.1697" cy="834.9064" r="55.2751"/>
          <circle class="cls-8" cx="1349.8382" cy="834.9064" r="55.2751"/>
          <circle class="cls-8" cx="962.1697" cy="502.5131" r="55.2751"/>
          <circle class="cls-8" cx="962.1697" cy="1499.6932" r="55.2751"/>
          <circle class="cls-11" cx="962.1697" cy="1832.0865" r="55.2751"/>
          <circle class="cls-8" cx="962.1697" cy="1167.2998" r="55.2751"/>
        </g>
        <g>
          <g>
            <line class="cls-10" x1="962.1697" y1="580.9755" x2="962.1697" y2="757.1008"/>
            <polygon class="cls-7" points="928.2635 620.8126 962.1697 586.8866 996.0759 620.8126 996.0759 592.0226 962.1697 558.1166 928.2635 592.0226 928.2635 620.8126"/>
            <polygon class="cls-7" points="928.2635 717.2637 962.1697 751.1897 996.0759 717.2637 996.0759 746.0537 962.1697 779.9597 928.2635 746.0537 928.2635 717.2637"/>
          </g>
          <g>
            <line class="cls-10" x1="962.1697" y1="890.5099" x2="962.1697" y2="1089.4941"/>
            <polygon class="cls-7" points="928.2635 1049.6571 962.1697 1083.583 996.0759 1049.6571 996.0759 1078.447 962.1697 1112.353 928.2635 1078.447 928.2635 1049.6571"/>
          </g>
          <g>
            <line class="cls-10" x1="962.1697" y1="1222.9033" x2="962.1697" y2="1421.8876"/>
            <polygon class="cls-7" points="928.2635 1382.0504 962.1697 1415.9764 996.0759 1382.0504 996.0759 1410.8405 962.1697 1444.7465 928.2635 1410.8405 928.2635 1382.0504"/>
          </g>
          <g>
            <path class="cls-10" d="M1345.264,890.5048c-25.0941,149.9386-150.5641,265.8683-304.9713,276.3505"/>
            <polygon class="cls-7" points="1078.7668 1131.2959 1046.1929 1166.5031 1081.4189 1199.0564 1052.651 1200.1824 1017.4449 1167.6282 1049.9989 1132.4219 1078.7668 1131.2959"/>
          </g>
          <g>
            <path class="cls-10" d="M1017.4449,502.8415c156.8939,0,288.3991,108.7014,323.3121,254.9005"/>
            <polygon class="cls-7" points="1299.3422 725.6638 1339.4415 751.9819 1365.7362 711.8671 1371.5936 740.0549 1345.295 780.1501 1305.1996 753.8517 1299.3422 725.6638"/>
          </g>
        </g>
      </g>
      <g>
        <polyline class="cls-10" points="1750.2878 476.248 1792.5287 466.5302 1826.1198 612.5424 1783.8789 622.2602"/>
        <polyline class="cls-10" points="1202.1104 1575.4695 1154.0693 1582.5945 1117.3028 1334.6905 1165.3438 1327.5656"/>
      </g>
    </g>
  </g>
</svg>