<?xml version="1.0" encoding="UTF-8"?>
<svg xmlns="http://www.w3.org/2000/svg" xmlns:xlink="http://www.w3.org/1999/xlink" viewBox="0 0 1724.5732 1232.2038">
  <defs>
    <style>
      .cls-1 {
        fill: #bcbcbc;
      }

      .cls-1, .cls-2, .cls-3, .cls-4, .cls-5 {
        mix-blend-mode: lighten;
      }

      .cls-6 {
        stroke-width: 12px;
      }

      .cls-6, .cls-7, .cls-8, .cls-9, .cls-10 {
        fill: none;
      }

      .cls-6, .cls-7, .cls-8, .cls-10 {
        stroke: #000;
        stroke-miterlimit: 10;
      }

      .cls-7 {
        stroke-width: 15px;
      }

      .cls-11 {
        fill: #fff;
      }

      .cls-8 {
        stroke-width: 16px;
      }

      .cls-12 {
        isolation: isolate;
        opacity: .52;
      }

      .cls-2 {
        fill: red;
      }

      .cls-3 {
        fill: lime;
      }

      .cls-4 {
        fill: #f0f;
      }

      .cls-10 {
        stroke-width: 20px;
      }

      .cls-13 {
        fill: url(#linear-gradient);
      }

      .cls-5 {
        fill: #00b1ff;
      }

      .cls-14 {
        opacity: .5;
      }
    </style>
    <linearGradient id="linear-gradient" x1="1278.5052" y1="1200.7324" x2="1573.2436" y2="100.7536" gradientUnits="userSpaceOnUse">
      <stop offset="0" stop-color="#f0f"/>
      <stop offset=".1302" stop-color="blue"/>
      <stop offset=".1426" stop-color="#02f"/>
      <stop offset=".1654" stop-color="#005cff"/>
      <stop offset=".1883" stop-color="#008dff"/>
      <stop offset=".2106" stop-color="#00b6ff"/>
      <stop offset=".2324" stop-color="#00d6ff"/>
      <stop offset=".2534" stop-color="#00ecff"/>
      <stop offset=".2733" stop-color="#00faff"/>
      <stop offset=".291" stop-color="aqua"/>
      <stop offset=".3091" stop-color="#00fff8"/>
      <stop offset=".3348" stop-color="#00ffe5"/>
      <stop offset=".3649" stop-color="#00ffc7"/>
      <stop offset=".3985" stop-color="#00ff9d"/>
      <stop offset=".4348" stop-color="#0f6"/>
      <stop offset=".473" stop-color="#00ff25"/>
      <stop offset=".4932" stop-color="lime"/>
      <stop offset=".5052" stop-color="#23ff00"/>
      <stop offset=".5246" stop-color="#56ff00"/>
      <stop offset=".545" stop-color="#83ff00"/>
      <stop offset=".5659" stop-color="#a9ff00"/>
      <stop offset=".5875" stop-color="#c8ff00"/>
      <stop offset=".6099" stop-color="#e0ff00"/>
      <stop offset=".6336" stop-color="#f1ff00"/>
      <stop offset=".6593" stop-color="#fbff00"/>
      <stop offset=".691" stop-color="#ff0"/>
      <stop offset=".7051" stop-color="#ffeb00"/>
      <stop offset=".7524" stop-color="#ffad00"/>
      <stop offset=".7993" stop-color="#ff7800"/>
      <stop offset=".8448" stop-color="#ff4d00"/>
      <stop offset=".8884" stop-color="#ff2b00"/>
      <stop offset=".9298" stop-color="#ff1300"/>
      <stop offset=".968" stop-color="#ff0500"/>
      <stop offset="1" stop-color="red"/>
    </linearGradient>
  </defs>
  <g id="bkgd">
    <path id="C_Shade_bkdp" data-name="C Shade bkdp" class="cls-11" d="M524.4066,180.8219v-56.79c-64.85,7.86-125.83,28.22-180.49,58.61l33.4,45.88-47.3701,34.48-50.36,36.66-33.4-45.89c-46.37,43.24-84.45,95.25-111.6,153.4l53.95,17.52-18.76,57.8-18.57,57.18-53.94-17.51c-5.95,30.71-9.06,62.43-9.06,94.87s3.11,64.17,9.06,94.8801l53.94-17.52,18.47,56.8899,18.86,58.0901-53.95,17.52c27.15,58.1499,65.23,110.1599,111.6,153.3999l33.4-45.8899,50.45,36.72v.01l47.28,34.4099-33.4,45.8801c54.66,30.3899,115.64,50.75,180.49,58.6099v-56.7899h60.45V180.8219h-60.45Z"/>
    <path id="S_Shade_bkdp" data-name="S Shade bkdp" class="cls-11" d="M1041.4377,985.9454l40.3396-6.4094,25.7756,162.2273-40.3396,6.4094-25.7756-162.2273ZM1159.42,1128.0031l40.2268-7.0833-26.7327-151.8181-40.2268,7.0833,26.7327,151.8181ZM1252.0481,1107.3525l40.034-8.1024-29.1199-143.8818-40.034,8.1024,29.1199,143.8818ZM1345.6724,1083.9296l38.4918-9.4752-33.4683-135.9608-38.4918,9.4752,33.4683,135.9608ZM1439.4545,1054.7287l37.6423-12.428-41.3341-125.1936-37.6423,12.428,41.3341,125.1936ZM1534.2627,1012.2276l34.8618-18.8693-56.7923-104.926-34.8618,18.8693,56.7923,104.926ZM1631.2714,938.1408l20.902-32.422-96.8686-62.4496-20.902,32.422,96.8686,62.4496ZM1668.8293,818.9034l-1.4452-38.5486-108.418,4.0646,1.4452,38.5486,108.418-4.0646ZM1645.8449,704.8795l-17.6912-33.0311-89.0855,47.7135,17.6912,33.0311,89.0855-47.7135ZM1582.353,616.5776l-27.2376-25.7321-69.4001,73.4605,27.2376,25.7321,69.4001-73.4605ZM1512.1686,555.2318l-27.3683-25.5931-67.1783,71.838,27.3683,25.5931,67.1783-71.838ZM1454.5262,498.4482l-18.7796-30.6021-80.9479,49.6752,18.7796,30.6021,80.9479-49.6752ZM1422.1258,432.8995l-3.9625-34.642-90.3298,10.3324,3.9625,34.642,90.3298-10.3324ZM1420.4701,361.7089l12.8136-32.4281-81.2564-32.1077-12.8136,32.4281,81.2564,32.1077ZM1455.1146,296.5793l24.6837-21.9276-54.9951-61.9076-24.6837,21.9276,54.9951,61.9076ZM1519.8318,248.1757l29.9858-13.8187-33.3846-72.4428-29.9858,13.8187,33.3846,72.4428ZM1599.4377,215.0493l31.9125-8.4673-19.4161-73.1773-31.9125,8.4673,19.4161,73.1773Z"/>
  </g>
  <g id="C_shade" data-name="C shade" class="cls-12">
    <g>
      <path class="cls-3" d="M584.8566,1053.2419V180.8219l-140.68,436.31-54.21,168.13-59.93,185.86v.01l47.28,34.4099-33.4,45.8801c54.66,30.3899,115.64,50.75,180.49,58.6099v-56.7899h60.45"/>
      <path class="cls-1" d="M267.5066,616.8719l-97.83,134.41-18.47-56.89-53.94,17.52c-5.95-30.71-9.06-62.43-9.06-94.88s3.11-64.16,9.06-94.87l53.94,17.51,18.57-57.18,97.73,134.3799Z"/>
      <path class="cls-2" d="M584.8566,180.8219v872.42l-140.68-436.11-54.32-168.39-59.91-185.7401,47.3701-34.48-33.4-45.88c54.66-30.39,115.64-50.75,180.49-58.61v56.79h60.45"/>
      <path class="cls-4" d="M389.8566,448.7419l-122.35,168.1299-97.83,134.41,18.86,58.09-53.95,17.5201c27.15,58.1499,65.23,110.1599,111.6,153.3999l33.4-45.8899,50.45,36.72,59.93-185.86,54.21-168.13,140.68-436.31-195,267.92Z"/>
      <path class="cls-5" d="M444.1766,617.1319l-54.32-168.39-59.91-185.7401-50.36,36.66-33.4-45.89c-46.37,43.24-84.45,95.25-111.6,153.4l53.95,17.52-18.76,57.8,97.73,134.3799,122.46,168.39,194.89,267.98-140.68-436.11Z"/>
    </g>
  </g>
  <g id="S_shade" data-name="S shade" class="cls-14">
    <path class="cls-13" d="M1041.4377,985.9454l40.3396-6.4094,25.7756,162.2273-40.3396,6.4094-25.7756-162.2273ZM1159.42,1128.0031l40.2268-7.0833-26.7327-151.8181-40.2268,7.0833,26.7327,151.8181ZM1252.0481,1107.3525l40.034-8.1024-29.1199-143.8818-40.034,8.1024,29.1199,143.8818ZM1345.6724,1083.9296l38.4918-9.4752-33.4683-135.9608-38.4918,9.4752,33.4683,135.9608ZM1439.4545,1054.7287l37.6423-12.428-41.3341-125.1936-37.6423,12.428,41.3341,125.1936ZM1534.2627,1012.2276l34.8618-18.8693-56.7923-104.926-34.8618,18.8693,56.7923,104.926ZM1631.2714,938.1408l20.902-32.422-96.8686-62.4496-20.902,32.422,96.8686,62.4496ZM1668.8293,818.9034l-1.4452-38.5486-108.418,4.0646,1.4452,38.5486,108.418-4.0646ZM1645.8449,704.8795l-17.6912-33.0311-89.0855,47.7135,17.6912,33.0311,89.0855-47.7135ZM1582.353,616.5776l-27.2376-25.7321-69.4001,73.4605,27.2376,25.7321,69.4001-73.4605ZM1512.1686,555.2318l-27.3683-25.5931-67.1783,71.838,27.3683,25.5931,67.1783-71.838ZM1454.5262,498.4482l-18.7796-30.6021-80.9479,49.6752,18.7796,30.6021,80.9479-49.6752ZM1422.1258,432.8995l-3.9625-34.642-90.3298,10.3324,3.9625,34.642,90.3298-10.3324ZM1420.4701,361.7089l12.8136-32.4281-81.2564-32.1077-12.8136,32.4281,81.2564,32.1077ZM1455.1146,296.5793l24.6837-21.9276-54.9951-61.9076-24.6837,21.9276,54.9951,61.9076ZM1519.8318,248.1757l29.9858-13.8187-33.3846-72.4428-29.9858,13.8187,33.3846,72.4428ZM1599.4377,215.0493l31.9125-8.4673-19.4161-73.1773-31.9125,8.4673,19.4161,73.1773Z"/>
    <path class="cls-9" d="M1605.6859,174.227c-287.4589,76.2715-238.0239,261.3235-210.4558,316.7616,55.3193,111.2443,200.8232,155.2814,216.1393,280.465,18.0991,147.9296-42.9262,213.9202-536.8741,292.4008"/>
  </g>
  <g id="strokes">
    <g id="C">
      <g id="edges">
        <path class="cls-10" d="M350.3424,179.1267c52.9965-28.4408,111.7529-47.5421,174.0679-55.1028"/>
        <path class="cls-10" d="M136.3758,403.39c27.0192-56.6169,64.4436-107.3147,109.799-149.6192"/>
        <path class="cls-10" d="M97.2466,711.8612c-5.9345-30.6956-9.0426-62.3987-9.0426-94.8278,0-32.447,3.1115-64.1673,9.0525-94.8787"/>
        <path class="cls-10" d="M246.1765,980.2976c-46.366-43.2467-84.4438-95.265-111.59-153.4114"/>
        <path class="cls-10" d="M524.4099,1110.0429c-64.8436-7.8676-125.8338-28.2313-180.4906-58.6111"/>
      </g>
      <g id="nodes">
        <rect class="cls-7" x="524.4112" y="1053.2406" width="120.8867" height="120.8867" transform="translate(1169.7092 2227.368) rotate(180)"/>
        <rect class="cls-7" x="232.4385" y="958.3967" width="120.8867" height="120.8867" transform="translate(-69.9166 2014.9284) rotate(-143.9491)"/>
        <rect class="cls-7" x="51.9415" y="710.1068" width="120.8867" height="120.8867" transform="translate(-585.7923 1115.4074) rotate(-107.9885)"/>
        <rect class="cls-7" x="51.9415" y="403.0733" width="120.8867" height="120.8867" transform="translate(-363.1818 427.2618) rotate(-72.0115)"/>
        <rect class="cls-7" x="232.4386" y="154.7834" width="120.8867" height="120.8867" transform="translate(-70.5733 213.5795) rotate(-36.0509)"/>
        <rect class="cls-7" x="524.4112" y="59.9394" width="120.8867" height="120.8867"/>
      </g>
    </g>
    <g id="P">
      <g>
        <circle class="cls-8" cx="823.9564" cy="450.5083" r="55.2751"/>
        <circle class="cls-8" cx="1211.6249" cy="450.5083" r="55.2751"/>
        <circle class="cls-8" cx="823.9564" cy="118.115" r="55.2751"/>
        <circle class="cls-8" cx="823.9564" cy="1115.2951" r="55.2751"/>
        <circle class="cls-8" cx="823.9564" cy="782.9017" r="55.2751"/>
      </g>
      <g>
        <g>
          <line class="cls-10" x1="823.9564" y1="196.5774" x2="823.9564" y2="372.7027"/>
          <polygon points="790.0502 236.4145 823.9564 202.4885 857.8626 236.4145 857.8626 207.6245 823.9564 173.7185 790.0502 207.6245 790.0502 236.4145"/>
          <polygon points="790.0502 332.8656 823.9564 366.7916 857.8626 332.8656 857.8626 361.6556 823.9564 395.5616 790.0502 361.6556 790.0502 332.8656"/>
        </g>
        <g>
          <line class="cls-10" x1="823.9564" y1="506.1119" x2="823.9564" y2="705.0961"/>
          <polygon points="790.0502 665.259 823.9564 699.185 857.8626 665.259 857.8626 694.049 823.9564 727.955 790.0502 694.049 790.0502 665.259"/>
        </g>
        <g>
          <line class="cls-10" x1="823.9564" y1="838.5052" x2="823.9564" y2="1037.4895"/>
          <polygon points="790.0502 997.6523 823.9564 1031.5784 857.8626 997.6523 857.8626 1026.4424 823.9564 1060.3484 790.0502 1026.4424 790.0502 997.6523"/>
        </g>
        <g>
          <path class="cls-10" d="M1207.0507,506.1067c-25.0941,149.9386-150.5641,265.8683-304.9713,276.3505"/>
          <polygon points="940.5535 746.8978 907.9795 782.1049 943.2056 814.6583 914.4376 815.7843 879.2315 783.2301 911.7855 748.0238 940.5535 746.8978"/>
        </g>
        <g>
          <path class="cls-10" d="M879.2315,118.4434c156.8939,0,288.3991,108.7014,323.3121,254.9005"/>
          <polygon points="1161.1288 341.2657 1201.2282 367.5838 1227.5228 327.469 1233.3803 355.6568 1207.0817 395.752 1166.9862 369.4536 1161.1288 341.2657"/>
        </g>
      </g>
    </g>
    <g id="S">
      <g>
        <path class="cls-9" d="M1605.6859,174.227c-287.4589,76.2715-238.0239,261.3235-210.4558,316.7616,55.3193,111.2443,200.8232,155.2814,216.1393,280.465,18.0991,147.9296-42.9262,213.9202-536.8741,292.4008"/>
        <rect class="cls-6" x="1054.0725" y="981.7232" width="40.8456" height="164.2622" transform="translate(2302.6165 1945.9226) rotate(170.972)"/>
        <rect class="cls-6" x="1145.7442" y="971.4755" width="40.8456" height="154.1537" transform="translate(2496.5009 1878.9856) rotate(170.0135)"/>
        <rect class="cls-6" x="1237.0823" y="957.9609" width="40.8456" height="146.799" transform="translate(2694.6078 1792.7795) rotate(168.5586)"/>
        <rect class="cls-6" x="1328.3637" y="941.2019" width="39.6408" height="140.0196" transform="translate(2898.9946 1670.8605) rotate(166.1709)"/>
        <rect class="cls-6" x="1417.7882" y="919.9976" width="39.6408" height="131.8406" transform="translate(3111.8381 1471.4158) rotate(161.7288)"/>
        <rect class="cls-6" x="1503.477" y="890.675" width="39.6408" height="119.3098" transform="translate(3315.3121 1060.9894) rotate(151.5751)"/>
        <rect class="cls-6" x="1574.0002" y="833.078" width="38.5756" height="115.254" transform="translate(3205.2202 34.2023) rotate(122.8092)"/>
        <rect class="cls-6" x="1594.6098" y="747.4144" width="38.5756" height="108.4942" transform="translate(2354.5335 -841.1365) rotate(87.853)"/>
        <rect class="cls-6" x="1573.7214" y="661.6915" width="37.4704" height="101.0585" transform="translate(1468.4377 -1027.8355) rotate(61.8268)"/>
        <rect class="cls-6" x="1515.2989" y="589.9126" width="37.4704" height="101.0585" transform="translate(858.7406 -878.5727) rotate(43.372)"/>
        <rect class="cls-6" x="1446.1601" y="529.177" width="37.4704" height="98.3545" transform="translate(789.9669 -844.6298) rotate(43.0802)"/>
        <rect class="cls-6" x="1386.71" y="460.4974" width="35.9049" height="94.9747" transform="translate(1102.9341 -954.9183) rotate(58.4639)"/>
        <rect class="cls-6" x="1357.5457" y="375.2853" width="34.8679" height="90.9188" transform="translate(1636.7406 -993.1423) rotate(83.4746)"/>
        <rect class="cls-6" x="1368.8148" y="285.7561" width="34.8679" height="87.3699" transform="translate(2202.0724 -838.7408) rotate(111.561)"/>
        <rect class="cls-6" x="1423.4505" y="213.2581" width="33.0167" height="82.8071" transform="translate(2685.62 -511.2772) rotate(138.384)"/>
        <rect class="cls-6" x="1501.6241" y="165.1624" width="33.0167" height="79.7652" transform="translate(2982.7197 -244.125) rotate(155.2579)"/>
        <rect class="cls-6" x="1589.1775" y="136.3723" width="33.0167" height="75.7093" transform="translate(3202.3527 -69.16) rotate(165.1401)"/>
      </g>
      <polyline class="cls-10" points="1612.0745 91.8499 1654.3153 82.1321 1687.9064 228.1443 1645.6655 237.8621"/>
      <polyline class="cls-10" points="1063.897 1191.0714 1015.856 1198.1964 979.0894 950.2925 1027.1304 943.1675"/>
    </g>
  </g>
</svg>