<?xml version="1.0" encoding="UTF-8"?>
<svg xmlns="http://www.w3.org/2000/svg" xmlns:xlink="http://www.w3.org/1999/xlink" viewBox="0 0 2000 2000">
  <defs>
    <style>
      .cls-1 {
        fill: #bcbcbc;
      }

      .cls-1, .cls-2, .cls-3, .cls-4, .cls-5, .cls-6 {
        mix-blend-mode: lighten;
      }

      .cls-7, .cls-5 {
        fill: #fff;
      }

      .cls-8 {
        stroke-width: 16px;
      }

      .cls-8, .cls-9, .cls-10, .cls-11 {
        fill: none;
      }

      .cls-8, .cls-9, .cls-11 {
        stroke: #fff;
        stroke-miterlimit: 10;
      }

      .cls-9 {
        stroke-width: 15px;
      }

      .cls-12 {
        opacity: .98;
      }

      .cls-2 {
        fill: red;
      }

      .cls-13, .cls-14 {
        isolation: isolate;
      }

      .cls-3 {
        fill: lime;
      }

      .cls-14 {
        opacity: .85;
      }

      .cls-4 {
        fill: #f0f;
      }

      .cls-15 {
        fill: url(#linear-gradient);
      }

      .cls-6 {
        fill: #00b1ff;
      }

      .cls-11 {
        stroke-width: 20px;
      }
    </style>
    <linearGradient id="linear-gradient" x1="1416.2185" y1="1584.6305" x2="1710.957" y2="484.6517" gradientUnits="userSpaceOnUse">
      <stop offset="0" stop-color="#f0f"/>
      <stop offset=".1302" stop-color="blue"/>
      <stop offset=".1426" stop-color="#02f"/>
      <stop offset=".1654" stop-color="#005cff"/>
      <stop offset=".1883" stop-color="#008dff"/>
      <stop offset=".2106" stop-color="#00b6ff"/>
      <stop offset=".2324" stop-color="#00d6ff"/>
      <stop offset=".2534" stop-color="#00ecff"/>
      <stop offset=".2733" stop-color="#00faff"/>
      <stop offset=".291" stop-color="aqua"/>
      <stop offset=".3091" stop-color="#00fff8"/>
      <stop offset=".3348" stop-color="#00ffe5"/>
      <stop offset=".3649" stop-color="#00ffc7"/>
      <stop offset=".3985" stop-color="#00ff9d"/>
      <stop offset=".4348" stop-color="#0f6"/>
      <stop offset=".473" stop-color="#00ff25"/>
      <stop offset=".4932" stop-color="lime"/>
      <stop offset=".5052" stop-color="#23ff00"/>
      <stop offset=".5246" stop-color="#56ff00"/>
      <stop offset=".545" stop-color="#83ff00"/>
      <stop offset=".5659" stop-color="#a9ff00"/>
      <stop offset=".5875" stop-color="#c8ff00"/>
      <stop offset=".6099" stop-color="#e0ff00"/>
      <stop offset=".6336" stop-color="#f1ff00"/>
      <stop offset=".6593" stop-color="#fbff00"/>
      <stop offset=".691" stop-color="#ff0"/>
      <stop offset=".7051" stop-color="#ffeb00"/>
      <stop offset=".7524" stop-color="#ffad00"/>
      <stop offset=".7993" stop-color="#ff7800"/>
      <stop offset=".8448" stop-color="#ff4d00"/>
      <stop offset=".8884" stop-color="#ff2b00"/>
      <stop offset=".9298" stop-color="#ff1300"/>
      <stop offset=".968" stop-color="#ff0500"/>
      <stop offset="1" stop-color="red"/>
    </linearGradient>
  </defs>
  <g class="cls-13">
    <g id="bkgd">
      <path id="C_Shade_bkdp" data-name="C Shade bkdp" class="cls-5" d="M662.12,564.72v-56.79c-64.85,7.86-125.83,28.22-180.49,58.61l33.4,45.88-47.3701,34.48-50.36,36.66-33.4-45.89c-46.37,43.24-84.45,95.25-111.6,153.4l53.95,17.52-18.76,57.8-18.57,57.18-53.94-17.51c-5.95,30.71-9.06,62.43-9.06,94.87s3.11,64.17,9.06,94.8801l53.94-17.52,18.47,56.8899,18.86,58.0901-53.95,17.52c27.15,58.1499,65.23,110.1599,111.6,153.3999l33.4-45.8899,50.45,36.72v.01l47.28,34.4099-33.4,45.8801c54.66,30.3899,115.64,50.75,180.49,58.6099v-56.7899h60.45v-872.42h-60.45Z"/>
      <path id="S_Shade_bkdp" data-name="S Shade bkdp" class="cls-7" d="M1179.1511,1369.8435l40.3396-6.4094,25.7756,162.2273-40.3396,6.4094-25.7756-162.2273ZM1297.1334,1511.9012l40.2268-7.0833-26.7327-151.8181-40.2268,7.0833,26.7327,151.8181ZM1389.7614,1491.2505l40.034-8.1024-29.1199-143.8818-40.034,8.1024,29.1199,143.8818ZM1483.3858,1467.8277l38.4918-9.4752-33.4683-135.9608-38.4918,9.4752,33.4683,135.9608ZM1577.1679,1438.6268l37.6423-12.428-41.3341-125.1936-37.6423,12.428,41.3341,125.1936ZM1671.976,1396.1257l34.8618-18.8693-56.7923-104.926-34.8618,18.8693,56.7923,104.926ZM1768.9847,1322.0389l20.902-32.422-96.8686-62.4496-20.902,32.422,96.8686,62.4496ZM1806.5426,1202.8015l-1.4452-38.5486-108.418,4.0646,1.4452,38.5486,108.418-4.0646ZM1783.5583,1088.7776l-17.6912-33.0311-89.0855,47.7135,17.6912,33.0311,89.0855-47.7135ZM1720.0664,1000.4757l-27.2376-25.7321-69.4001,73.4605,27.2376,25.7321,69.4001-73.4605ZM1649.882,939.1299l-27.3683-25.5931-67.1783,71.838,27.3683,25.5931,67.1783-71.838ZM1592.2396,882.3463l-18.7796-30.6021-80.9479,49.6752,18.7796,30.6021,80.9479-49.6752ZM1559.8392,816.7976l-3.9625-34.642-90.3298,10.3324,3.9625,34.642,90.3298-10.3324ZM1558.1835,745.607l12.8136-32.4281-81.2564-32.1077-12.8136,32.4281,81.2564,32.1077ZM1592.828,680.4774l24.6837-21.9276-54.9951-61.9076-24.6837,21.9276,54.9951,61.9076ZM1657.5452,632.0738l29.9858-13.8187-33.3846-72.4428-29.9858,13.8187,33.3846,72.4428ZM1737.1511,598.9474l31.9125-8.4673-19.4161-73.1773-31.9125,8.4673,19.4161,73.1773Z"/>
    </g>
    <g id="text">
      <g>
        <path class="cls-7" d="M596.4565,214.5391v-76.7998l13.4087-14.1001h51.9233v15.8999h-48.5v73.2002h49.9268v15.8999h-53.3501l-13.4087-14.1001Z"/>
        <path class="cls-7" d="M674.4824,213.939v-54.5996l13.9795-14.7002h43.3647l13.9795,14.7002v54.5996l-13.9795,14.7002h-43.3647l-13.9795-14.7002ZM691.0293,213.939h38.2295v-54.5996h-38.2295v54.5996Z"/>
        <path class="cls-7" d="M760.9253,144.6392h99.853l15.4058,16.2002v67.7998h-16.4043v-69.1499h-33.0942v69.1499h-16.2617v-69.1499h-33.0942v69.1499h-16.4043v-84Z"/>
        <path class="cls-7" d="M892.1602,249.6392v-105h58.7705l14.5498,15.2998v53.4004l-14.5498,15.2998h-42.2236v21h-16.5469ZM948.9336,159.6392h-40.2266v54h40.2266v-54Z"/>
        <path class="cls-7" d="M979.7446,213.939v-54.5996l13.9795-14.7002h55.9175v46.7998h-53.3501v22.2002h50.4985v15h-53.0659l-13.9795-14.7002ZM996.2915,180.3394l38.3735-1.5v-19.8003h-38.3735v21.3003Z"/>
        <path class="cls-7" d="M1064.7627,131.1392l16.5469-7.5v24h33.9502v15h-33.9502v51h33.9502v15h-36.2324l-14.2646-15v-82.5Z"/>
        <path class="cls-7" d="M1126.0996,135.0391v-13.5h16.5469v13.5h-16.5469ZM1126.0996,228.6392v-84h16.5469v84h-16.5469Z"/>
        <path class="cls-7" d="M1158.6221,131.1392l16.5469-7.5v24h33.9502v15h-33.9502v51h33.9502v15h-36.2324l-14.2646-15v-82.5Z"/>
        <path class="cls-7" d="M1219.96,135.0391v-13.5h16.5469v13.5h-16.5469ZM1219.96,228.6392v-84h16.5469v84h-16.5469Z"/>
        <path class="cls-7" d="M1266.8896,228.6392l-20.9688-84h16.832l16.2617,69h13.8369l16.2617-69h16.6895l-20.9688,84h-37.9443Z"/>
        <path class="cls-7" d="M1334.3604,213.939v-54.5996l13.9785-14.7002h55.918v46.7998h-53.3496v22.2002h50.4971v15h-53.0654l-13.9785-14.7002ZM1350.9072,180.3394l38.3721-1.5v-19.8003h-38.3721v21.3003Z"/>
        <path class="cls-7" d="M607.8696,282.7168v54.2998l-13.4092,14.1001h-45.647v22.5h-16.5469v-105h62.1938l13.4092,14.1001ZM548.8135,336.4165h42.5088v-53.0996h-42.5088v53.0996Z"/>
        <path class="cls-7" d="M620.9922,373.6167v-69l14.2646-15h41.938v15.6001h-39.6558v68.3999h-16.5469Z"/>
        <path class="cls-7" d="M687.1782,358.9165v-54.5996l13.9795-14.7002h43.3647l13.9795,14.7002v54.5996l-13.9795,14.7002h-43.3647l-13.9795-14.7002ZM703.7251,358.9165h38.2295v-54.5996h-38.2295v54.5996Z"/>
        <path class="cls-7" d="M777.6152,394.6167v-15h50.4971v-18h-41.3677l-13.9795-14.7002v-42.5996l15.1206-14.7002h56.7734v88.7998l-15.4058,16.2002h-51.6382ZM789.312,304.6167v42.2998h38.8003v-42.2998h-38.8003Z"/>
        <path class="cls-7" d="M860.6338,373.6167v-69l14.2646-15h41.938v15.6001h-39.6558v68.3999h-16.5469Z"/>
        <path class="cls-7" d="M926.249,358.6167v-33l54.4912-1.5v-19.5h-51.6382v-15h53.9209l14.2646,15v69h-56.7734l-14.2651-15ZM942.7964,338.2168v20.6997h37.9438v-23.6997l-37.9438,3Z"/>
        <path class="cls-7" d="M1013.2627,289.6167h99.8525l15.4062,16.2002v67.7998h-16.4043v-69.1499h-33.0947v69.1499h-16.2617v-69.1499h-33.0938v69.1499h-16.4043v-84Z"/>
        <path class="cls-7" d="M1144.498,289.6167h99.8525l15.4062,16.2002v67.7998h-16.4043v-69.1499h-33.0947v69.1499h-16.2617v-69.1499h-33.0938v69.1499h-16.4043v-84Z"/>
        <path class="cls-7" d="M1275.7334,280.0166v-13.5h16.5469v13.5h-16.5469ZM1275.7334,373.6167v-84h16.5469v84h-16.5469Z"/>
        <path class="cls-7" d="M1308.2559,373.6167v-84h58.2002l14.2646,15v69h-16.5469v-68.7002h-39.3711v68.7002h-16.5469Z"/>
        <path class="cls-7" d="M1400.6904,394.6167v-15h50.4971v-18h-41.3682l-13.9785-14.7002v-42.5996l15.1201-14.7002h56.7734v88.7998l-15.4062,16.2002h-51.6377ZM1412.3877,304.6167v42.2998h38.7998v-42.2998h-38.7998Z"/>
      </g>
      <g>
        <path class="cls-7" d="M737.6528,1755.1094v-15.2998h60.6001v-28.7998l-62.1001-4.9502v-42.1504l13.7998-13.7998h64.2002v15.2998h-60.6001v27.2998l62.1001,4.9502v43.6504l-13.7998,13.7998h-64.2002Z"/>
        <path class="cls-7" d="M831.4028,1740.4092v-54.5996l14.7002-14.7002h45.5996l14.7002,14.7002v54.5996l-14.7002,14.7002h-45.5996l-14.7002-14.7002ZM848.8027,1740.4092h40.2002v-54.5996h-40.2002v54.5996Z"/>
        <path class="cls-7" d="M921.4014,1740.4092v-54.5996l14.7002-14.7002h54.6001v15.5996h-51.9004v52.8008h51.9004v15.5996h-54.6001l-14.7002-14.7002Z"/>
        <path class="cls-7" d="M1003.3008,1661.5098v-13.5h17.3994v13.5h-17.3994ZM1003.3008,1755.1094v-84h17.3994v84h-17.3994Z"/>
        <path class="cls-7" d="M1036.6006,1740.4092v-54.5996l14.7002-14.7002h58.7998v46.7998h-56.0996v22.2002h53.0996v15h-55.7998l-14.7002-14.7002ZM1054.001,1706.8096l40.3496-1.5v-19.7998h-40.3496v21.2998Z"/>
        <path class="cls-7" d="M1126,1657.6094l17.3994-7.5v24h35.7002v15h-35.7002v51h35.7002v15h-38.0996l-15-15v-82.5Z"/>
        <path class="cls-7" d="M1188.249,1776.1094v-15h38.5498l5.3994-18h-25.7998l-22.7998-72h17.7002l17.7002,57.2998h17.0996l16.9502-57.2998h17.5498l-31.5,105h-50.8496Z"/>
      </g>
      <g>
        <path class="cls-7" d="M865.3623,1919.3584v-96.96h18.5601v95.3604h48.96v-95.3604h18.5601v96.96l-15.04,15.04h-56l-15.04-15.04Z"/>
        <path class="cls-7" d="M969.2012,1919.3584v-81.9199l15.04-15.04h58.2402v16.96h-54.3999v78.0801h56.0005v16.96h-59.8408l-15.04-15.04Z"/>
        <path class="cls-7" d="M1057.6797,1934.3984v-112h18.5596v96h45.6006v-28.7998h17.1191v44.7998h-81.2793Z"/>
      </g>
    </g>
    <g id="C_shade" data-name="C shade" class="cls-14">
      <path class="cls-3" d="M722.57,1437.14v-872.42l-140.68,436.31-54.21,168.13-59.93,185.86v.01l47.28,34.4099-33.4,45.8801c54.66,30.3899,115.64,50.75,180.49,58.6099v-56.7899h60.45"/>
      <path class="cls-1" d="M405.22,1000.77l-97.83,134.41-18.47-56.89-53.94,17.52c-5.95-30.71-9.06-62.43-9.06-94.88s3.11-64.16,9.06-94.87l53.94,17.51,18.57-57.18,97.73,134.3799Z"/>
      <path class="cls-2" d="M722.57,564.72v872.42l-140.68-436.11-54.32-168.39-59.91-185.7401,47.3701-34.48-33.4-45.88c54.66-30.39,115.64-50.75,180.49-58.61v56.79h60.45"/>
      <path class="cls-4" d="M527.57,832.64l-122.35,168.1299-97.83,134.41,18.86,58.09-53.95,17.5201c27.15,58.1499,65.23,110.1599,111.6,153.3999l33.4-45.8899,50.45,36.72,59.93-185.86,54.21-168.13,140.68-436.31-195,267.92Z"/>
      <path class="cls-6" d="M581.89,1001.03l-54.32-168.39-59.91-185.7401-50.36,36.66-33.4-45.89c-46.37,43.24-84.45,95.25-111.6,153.4l53.95,17.52-18.76,57.8,97.73,134.3799,122.46,168.39,194.89,267.98-140.68-436.11Z"/>
    </g>
    <g id="S_shade" data-name="S shade" class="cls-12">
      <path class="cls-15" d="M1179.1511,1369.8435l40.3396-6.4094,25.7756,162.2273-40.3396,6.4094-25.7756-162.2273ZM1297.1334,1511.9012l40.2268-7.0833-26.7327-151.8181-40.2268,7.0833,26.7327,151.8181ZM1389.7614,1491.2505l40.034-8.1024-29.1199-143.8818-40.034,8.1024,29.1199,143.8818ZM1483.3858,1467.8277l38.4918-9.4752-33.4683-135.9608-38.4918,9.4752,33.4683,135.9608ZM1577.1679,1438.6268l37.6423-12.428-41.3341-125.1936-37.6423,12.428,41.3341,125.1936ZM1671.976,1396.1257l34.8618-18.8693-56.7923-104.926-34.8618,18.8693,56.7923,104.926ZM1768.9847,1322.0389l20.902-32.422-96.8686-62.4496-20.902,32.422,96.8686,62.4496ZM1806.5426,1202.8015l-1.4452-38.5486-108.418,4.0646,1.4452,38.5486,108.418-4.0646ZM1783.5583,1088.7776l-17.6912-33.0311-89.0855,47.7135,17.6912,33.0311,89.0855-47.7135ZM1720.0664,1000.4757l-27.2376-25.7321-69.4001,73.4605,27.2376,25.7321,69.4001-73.4605ZM1649.882,939.1299l-27.3683-25.5931-67.1783,71.838,27.3683,25.5931,67.1783-71.838ZM1592.2396,882.3463l-18.7796-30.6021-80.9479,49.6752,18.7796,30.6021,80.9479-49.6752ZM1559.8392,816.7976l-3.9625-34.642-90.3298,10.3324,3.9625,34.642,90.3298-10.3324ZM1558.1835,745.607l12.8136-32.4281-81.2564-32.1077-12.8136,32.4281,81.2564,32.1077ZM1592.828,680.4774l24.6837-21.9276-54.9951-61.9076-24.6837,21.9276,54.9951,61.9076ZM1657.5452,632.0738l29.9858-13.8187-33.3846-72.4428-29.9858,13.8187,33.3846,72.4428ZM1737.1511,598.9474l31.9125-8.4673-19.4161-73.1773-31.9125,8.4673,19.4161,73.1773Z"/>
    </g>
    <g id="strokes">
      <g id="C">
        <g id="edges">
          <path class="cls-11" d="M488.0557,563.0248c52.9965-28.4408,111.7529-47.5421,174.0679-55.1028"/>
          <path class="cls-11" d="M274.0892,787.2881c27.0192-56.6169,64.4436-107.3147,109.799-149.6192"/>
          <path class="cls-11" d="M234.96,1095.7593c-5.9345-30.6956-9.0426-62.3987-9.0426-94.8278,0-32.447,3.1115-64.1673,9.0525-94.8787"/>
          <path class="cls-11" d="M383.8899,1364.1957c-46.366-43.2467-84.4438-95.265-111.59-153.4114"/>
          <path class="cls-11" d="M662.1233,1493.941c-64.8436-7.8676-125.8338-28.2313-180.4906-58.6111"/>
        </g>
        <g id="nodes">
          <rect class="cls-9" x="662.1246" y="1437.1387" width="120.8867" height="120.8867" transform="translate(1445.1359 2995.1642) rotate(180)"/>
          <rect class="cls-9" x="370.1519" y="1342.2948" width="120.8867" height="120.8867" transform="translate(-46.7885 2790.2507) rotate(-143.9491)"/>
          <rect class="cls-9" x="189.6549" y="1094.0049" width="120.8867" height="120.8867" transform="translate(-770.682 1748.845) rotate(-107.9885)"/>
          <rect class="cls-9" x="189.6549" y="786.9714" width="120.8867" height="120.8867" transform="translate(-633.1305 823.5837) rotate(-72.0115)"/>
          <rect class="cls-9" x="370.1519" y="538.6815" width="120.8867" height="120.8867" transform="translate(-270.126 368.1432) rotate(-36.0509)"/>
          <rect class="cls-9" x="662.1246" y="443.8375" width="120.8867" height="120.8867"/>
        </g>
      </g>
      <g id="P">
        <g id="nodes-2" data-name="nodes">
          <circle class="cls-8" cx="961.6697" cy="834.4064" r="55.2751"/>
          <circle class="cls-8" cx="1349.3382" cy="834.4064" r="55.2751"/>
          <circle class="cls-8" cx="961.6697" cy="502.0131" r="55.2751"/>
          <circle class="cls-8" cx="961.6697" cy="1499.1932" r="55.2751"/>
          <circle class="cls-10" cx="961.6697" cy="1831.5865" r="55.2751"/>
          <circle class="cls-8" cx="961.6697" cy="1166.7998" r="55.2751"/>
        </g>
        <g id="edges-2" data-name="edges">
          <g>
            <line class="cls-11" x1="961.6697" y1="580.4755" x2="961.6697" y2="756.6008"/>
            <polygon class="cls-7" points="927.7635 620.3126 961.6697 586.3866 995.5759 620.3126 995.5759 591.5226 961.6697 557.6166 927.7635 591.5226 927.7635 620.3126"/>
            <polygon class="cls-7" points="927.7635 716.7637 961.6697 750.6897 995.5759 716.7637 995.5759 745.5537 961.6697 779.4597 927.7635 745.5537 927.7635 716.7637"/>
          </g>
          <g>
            <line class="cls-11" x1="961.6697" y1="890.0099" x2="961.6697" y2="1088.9941"/>
            <polygon class="cls-7" points="927.7635 1049.1571 961.6697 1083.083 995.5759 1049.1571 995.5759 1077.947 961.6697 1111.853 927.7635 1077.947 927.7635 1049.1571"/>
          </g>
          <g>
            <line class="cls-11" x1="961.6697" y1="1222.4033" x2="961.6697" y2="1421.3876"/>
            <polygon class="cls-7" points="927.7635 1381.5504 961.6697 1415.4764 995.5759 1381.5504 995.5759 1410.3405 961.6697 1444.2465 927.7635 1410.3405 927.7635 1381.5504"/>
          </g>
          <g>
            <path class="cls-11" d="M1344.764,890.0048c-25.0941,149.9386-150.5641,265.8683-304.9713,276.3505"/>
            <polygon class="cls-7" points="1078.2668 1130.7959 1045.6929 1166.0031 1080.9189 1198.5564 1052.151 1199.6824 1016.9449 1167.1282 1049.4989 1131.9219 1078.2668 1130.7959"/>
          </g>
          <g>
            <path class="cls-11" d="M1016.9449,502.3415c156.8939,0,288.3991,108.7014,323.3121,254.9005"/>
            <polygon class="cls-7" points="1298.8422 725.1638 1338.9415 751.4819 1365.2362 711.3671 1371.0936 739.5549 1344.795 779.6501 1304.6996 753.3517 1298.8422 725.1638"/>
          </g>
        </g>
      </g>
      <g id="S">
        <polyline class="cls-11" points="1749.7878 475.748 1792.0287 466.0302 1825.6198 612.0424 1783.3789 621.7602"/>
        <polyline class="cls-11" points="1201.6104 1574.9695 1153.5693 1582.0945 1116.8028 1334.1905 1164.8438 1327.0656"/>
      </g>
    </g>
  </g>
</svg>