<?xml version="1.0" encoding="UTF-8"?>
<svg xmlns="http://www.w3.org/2000/svg" viewBox="0 0 1724.57 1232.2">
  <defs>
    <style>
      .cls-1 {
        fill: #bcbcbc;
      }

      .cls-1, .cls-2, .cls-3, .cls-4, .cls-5, .cls-6 {
        isolation: isolate;
      }

      .cls-1, .cls-5, .cls-6 {
        mix-blend-mode: difference;
      }

      .cls-7 {
        stroke-width: 12px;
      }

      .cls-7, .cls-8, .cls-9, .cls-10, .cls-11 {
        fill: none;
      }

      .cls-7, .cls-8, .cls-9, .cls-11 {
        stroke: #000;
        stroke-miterlimit: 10;
      }

      .cls-8 {
        stroke-width: 15px;
      }

      .cls-9 {
        stroke-width: 16px;
      }

      .cls-2 {
        opacity: .7;
      }

      .cls-3 {
        fill: #636363;
        mix-blend-mode: screen;
      }

      .cls-4 {
        fill: #4f4f4f;
        mix-blend-mode: overlay;
      }

      .cls-11 {
        stroke-width: 20px;
      }

      .cls-12 {
        opacity: .26;
      }

      .cls-5 {
        fill: #5b5b5b;
      }

      .cls-6 {
        fill: #898989;
      }
    </style>
  </defs>
  <g id="S_shade" data-name="S shade">
    <path class="cls-12" d="M1041.4361,985.9435l40.3396-6.4094,25.7756,162.2273-40.3396,6.4094-25.7756-162.2273ZM1159.4184,1128.0012l40.2268-7.0833-26.7327-151.8181-40.2268,7.0833,26.7327,151.8181ZM1252.0464,1107.3505l40.034-8.1024-29.1199-143.8818-40.034,8.1024,29.1199,143.8818ZM1345.6708,1083.9277l38.4918-9.4752-33.4683-135.9608-38.4918,9.4752,33.4683,135.9608ZM1439.4529,1054.7268l37.6423-12.428-41.3341-125.1936-37.6423,12.428,41.3341,125.1936ZM1534.261,1012.2257l34.8618-18.8693-56.7923-104.926-34.8618,18.8693,56.7923,104.926ZM1631.2697,938.1389l20.902-32.422-96.8686-62.4496-20.902,32.422,96.8686,62.4496ZM1668.8276,818.9015l-1.4452-38.5486-108.418,4.0646,1.4452,38.5486,108.418-4.0646ZM1645.8433,704.8776l-17.6912-33.0311-89.0855,47.7135,17.6912,33.0311,89.0855-47.7135ZM1582.3514,616.5757l-27.2376-25.7321-69.4001,73.4605,27.2376,25.7321,69.4001-73.4605ZM1512.167,555.2299l-27.3683-25.5931-67.1783,71.838,27.3683,25.5931,67.1783-71.838ZM1454.5246,498.4463l-18.7796-30.6021-80.9479,49.6752,18.7796,30.6021,80.9479-49.6752ZM1422.1242,432.8976l-3.9625-34.642-90.3298,10.3324,3.9625,34.642,90.3298-10.3324ZM1420.4685,361.707l12.8136-32.4281-81.2564-32.1077-12.8136,32.4281,81.2564,32.1077ZM1455.113,296.5774l24.6837-21.9276-54.9951-61.9076-24.6837,21.9276,54.9951,61.9076ZM1519.8302,248.1738l29.9858-13.8187-33.3846-72.4428-29.9858,13.8187,33.3846,72.4428ZM1599.4361,215.0474l31.9125-8.4673-19.4161-73.1773-31.9125,8.4673,19.4161,73.1773Z"/>
  </g>
  <g id="C_shade" data-name="C shade" class="cls-2">
    <path class="cls-5" d="M584.855,1053.24V180.82l-140.68,436.31-54.21,168.13-59.93,185.86v.01l47.28,34.4099-33.4,45.8801c54.66,30.3899,115.64,50.75,180.49,58.6099v-56.7899h60.45"/>
    <path class="cls-1" d="M267.505,616.87l-97.83,134.41-18.47-56.89-53.94,17.52c-5.95-30.71-9.06-62.43-9.06-94.88s3.11-64.16,9.06-94.87l53.94,17.51,18.57-57.18,97.73,134.3799Z"/>
    <path class="cls-3" d="M584.855,180.82v872.42l-140.68-436.11-54.32-168.39-59.91-185.7401,47.3701-34.48-33.4-45.88c54.66-30.39,115.64-50.75,180.49-58.61v56.79h60.45"/>
    <path class="cls-6" d="M389.855,448.74l-122.35,168.1299-97.83,134.41,18.86,58.09-53.95,17.5201c27.15,58.1499,65.23,110.1599,111.6,153.3999l33.4-45.8899,50.45,36.72,59.93-185.86,54.21-168.13,140.68-436.31-195,267.92Z"/>
    <path class="cls-4" d="M444.175,617.13l-54.32-168.39-59.91-185.7401-50.36,36.66-33.4-45.89c-46.37,43.24-84.45,95.25-111.6,153.4l53.95,17.52-18.76,57.8,97.73,134.3799,122.46,168.39,194.89,267.98-140.68-436.11Z"/>
  </g>
  <g id="strokes">
    <g id="C">
      <g id="edges">
        <path class="cls-11" d="M343.9174,182.6332c54.6572-30.38,115.6479-50.7439,180.4921-58.6114"/>
        <path class="cls-11" d="M134.5807,407.1878c27.1464-58.1499,65.2256-110.1713,111.5939-153.4202"/>
        <path class="cls-11" d="M97.2552,711.9119c-5.9412-30.712-9.0528-62.4328-9.0528-94.8804s3.1111-64.1626,9.0512-94.8719"/>
        <path class="cls-11" d="M246.1775,980.2981c-46.3659-43.246-84.4438-95.2635-111.5903-153.409"/>
        <path class="cls-11" d="M524.4037,1110.0404c-64.8444-7.8683-125.8352-28.233-180.4923-58.614"/>
      </g>
      <g id="nodes">
        <rect class="cls-8" x="524.4096" y="1053.2387" width="120.8867" height="120.8867" transform="translate(1169.7059 2227.3642) rotate(180)"/>
        <rect class="cls-8" x="232.4369" y="958.3948" width="120.8867" height="120.8867" transform="translate(-69.9185 2014.924) rotate(-143.9491)"/>
        <rect class="cls-8" x="51.9399" y="710.1049" width="120.8867" height="120.8867" transform="translate(-585.7926 1115.4034) rotate(-107.9885)"/>
        <rect class="cls-8" x="51.9399" y="403.0714" width="120.8867" height="120.8867" transform="translate(-363.1811 427.2589) rotate(-72.0115)"/>
        <rect class="cls-8" x="232.4369" y="154.7815" width="120.8867" height="120.8867" transform="translate(-70.5724 213.5782) rotate(-36.0509)"/>
        <rect class="cls-8" x="524.4096" y="59.9375" width="120.8867" height="120.8867"/>
      </g>
    </g>
    <g id="P">
      <g>
        <circle class="cls-9" cx="823.9547" cy="450.5064" r="55.2751"/>
        <circle class="cls-9" cx="1211.6232" cy="450.5064" r="55.2751"/>
        <circle class="cls-9" cx="823.9547" cy="118.1131" r="55.2751"/>
        <circle class="cls-9" cx="823.9547" cy="1115.2932" r="55.2751"/>
        <circle class="cls-9" cx="823.9547" cy="782.8998" r="55.2751"/>
      </g>
      <g>
        <g>
          <line class="cls-11" x1="823.9547" y1="196.5755" x2="823.9547" y2="372.7008"/>
          <polygon points="790.0485 236.4126 823.9547 202.4866 857.8609 236.4126 857.8609 207.6226 823.9547 173.7166 790.0485 207.6226 790.0485 236.4126"/>
          <polygon points="790.0485 332.8637 823.9547 366.7897 857.8609 332.8637 857.8609 361.6537 823.9547 395.5597 790.0485 361.6537 790.0485 332.8637"/>
        </g>
        <g>
          <line class="cls-11" x1="823.9547" y1="506.1099" x2="823.9547" y2="705.0941"/>
          <polygon points="790.0485 665.257 823.9547 699.1831 857.8609 665.257 857.8609 694.0471 823.9547 727.9531 790.0485 694.0471 790.0485 665.257"/>
        </g>
        <g>
          <line class="cls-11" x1="823.9547" y1="838.5033" x2="823.9547" y2="1037.4876"/>
          <polygon points="790.0485 997.6504 823.9547 1031.5764 857.8609 997.6504 857.8609 1026.4405 823.9547 1060.3465 790.0485 1026.4405 790.0485 997.6504"/>
        </g>
        <g>
          <path class="cls-11" d="M1207.049,506.1048c-25.0941,149.9386-150.5641,265.8683-304.9713,276.3505"/>
          <polygon points="940.5518 746.8959 907.9779 782.103 943.2039 814.6564 914.436 815.7824 879.2299 783.2282 911.7839 748.0219 940.5518 746.8959"/>
        </g>
        <g>
          <path class="cls-11" d="M879.2299,118.4415c156.8939,0,288.3991,108.7014,323.3121,254.9005"/>
          <polygon points="1161.1272 341.2638 1201.2265 367.5819 1227.5212 327.4671 1233.3786 355.6549 1207.08 395.7501 1166.9846 369.4517 1161.1272 341.2638"/>
        </g>
      </g>
    </g>
    <g id="S">
      <g>
        <path class="cls-10" d="M1605.6843,174.225c-287.4589,76.2715-238.0239,261.3235-210.4558,316.7616,55.3193,111.2443,200.8232,155.2814,216.1393,280.465,18.0991,147.9296-42.9262,213.9202-536.8741,292.4008"/>
        <rect class="cls-7" x="1054.0708" y="981.7213" width="40.8456" height="164.2622" transform="translate(2302.613 1945.919) rotate(170.972)"/>
        <rect class="cls-7" x="1145.7426" y="971.4736" width="40.8456" height="154.1537" transform="translate(2496.4974 1878.9821) rotate(170.0135)"/>
        <rect class="cls-7" x="1237.0806" y="957.959" width="40.8456" height="146.799" transform="translate(2694.6042 1792.776) rotate(168.5586)"/>
        <rect class="cls-7" x="1328.3621" y="941.2" width="39.6408" height="140.0196" transform="translate(2898.9909 1670.8571) rotate(166.1709)"/>
        <rect class="cls-7" x="1417.7866" y="919.9957" width="39.6408" height="131.8406" transform="translate(3111.8343 1471.4126) rotate(161.7288)"/>
        <rect class="cls-7" x="1503.4754" y="890.6731" width="39.6408" height="119.3098" transform="translate(3315.3081 1060.9866) rotate(151.5751)"/>
        <rect class="cls-7" x="1573.9986" y="833.0761" width="38.5756" height="115.254" transform="translate(3205.2161 34.2007) rotate(122.8092)"/>
        <rect class="cls-7" x="1594.6082" y="747.4124" width="38.5756" height="108.4942" transform="translate(2354.53 -841.1368) rotate(87.853)"/>
        <rect class="cls-7" x="1573.7198" y="661.6895" width="37.4704" height="101.0585" transform="translate(1468.4352 -1027.8351) rotate(61.8268)"/>
        <rect class="cls-7" x="1515.2973" y="589.9107" width="37.4704" height="101.0585" transform="translate(858.7388 -878.5721) rotate(43.372)"/>
        <rect class="cls-7" x="1446.1585" y="529.1751" width="37.4704" height="98.3545" transform="translate(789.9652 -844.6292) rotate(43.0802)"/>
        <rect class="cls-7" x="1386.7084" y="460.4955" width="35.9049" height="94.9747" transform="translate(1102.9317 -954.9178) rotate(58.4639)"/>
        <rect class="cls-7" x="1357.5441" y="375.2834" width="34.8679" height="90.9188" transform="translate(1636.7373 -993.1424) rotate(83.4746)"/>
        <rect class="cls-7" x="1368.8132" y="285.7542" width="34.8679" height="87.3699" transform="translate(2202.0684 -838.7419) rotate(111.561)"/>
        <rect class="cls-7" x="1423.4489" y="213.2562" width="33.0167" height="82.8071" transform="translate(2685.6159 -511.2795) rotate(138.384)"/>
        <rect class="cls-7" x="1501.6225" y="165.1605" width="33.0167" height="79.7652" transform="translate(2982.7158 -244.128) rotate(155.2579)"/>
        <rect class="cls-7" x="1589.1759" y="136.3704" width="33.0167" height="75.7093" transform="translate(3202.3491 -69.1633) rotate(165.1401)"/>
      </g>
      <polyline class="cls-11" points="1612.0728 91.848 1654.3137 82.1302 1687.9048 228.1424 1645.6639 237.8602"/>
      <polyline class="cls-11" points="1063.8954 1191.0695 1015.8543 1198.1945 979.0878 950.2905 1027.1288 943.1656"/>
    </g>
  </g>
</svg>