<?xml version="1.0" encoding="UTF-8"?>
<svg xmlns="http://www.w3.org/2000/svg" xmlns:xlink="http://www.w3.org/1999/xlink" viewBox="0 0 1724.57 1232.2">
  <defs>
    <style>
      .cls-1 {
        fill: #bcbcbc;
      }

      .cls-1, .cls-2, .cls-3, .cls-4, .cls-5, .cls-6 {
        mix-blend-mode: lighten;
      }

      .cls-7, .cls-5 {
        fill: #fff;
      }

      .cls-8 {
        stroke-width: 16px;
      }

      .cls-8, .cls-9, .cls-10 {
        fill: none;
        stroke: #fff;
        stroke-miterlimit: 10;
      }

      .cls-9 {
        stroke-width: 15px;
      }

      .cls-11 {
        opacity: .98;
      }

      .cls-2 {
        fill: red;
      }

      .cls-12, .cls-13 {
        isolation: isolate;
      }

      .cls-3 {
        fill: lime;
      }

      .cls-13 {
        opacity: .85;
      }

      .cls-4 {
        fill: #f0f;
      }

      .cls-14 {
        fill: url(#linear-gradient);
      }

      .cls-6 {
        fill: #00b1ff;
      }

      .cls-10 {
        stroke-width: 20px;
      }
    </style>
    <linearGradient id="linear-gradient" x1="1278.5035" y1="1200.7305" x2="1573.242" y2="100.7517" gradientUnits="userSpaceOnUse">
      <stop offset="0" stop-color="#f0f"/>
      <stop offset=".1302" stop-color="blue"/>
      <stop offset=".1426" stop-color="#02f"/>
      <stop offset=".1654" stop-color="#005cff"/>
      <stop offset=".1883" stop-color="#008dff"/>
      <stop offset=".2106" stop-color="#00b6ff"/>
      <stop offset=".2324" stop-color="#00d6ff"/>
      <stop offset=".2534" stop-color="#00ecff"/>
      <stop offset=".2733" stop-color="#00faff"/>
      <stop offset=".291" stop-color="aqua"/>
      <stop offset=".3091" stop-color="#00fff8"/>
      <stop offset=".3348" stop-color="#00ffe5"/>
      <stop offset=".3649" stop-color="#00ffc7"/>
      <stop offset=".3985" stop-color="#00ff9d"/>
      <stop offset=".4348" stop-color="#0f6"/>
      <stop offset=".473" stop-color="#00ff25"/>
      <stop offset=".4932" stop-color="lime"/>
      <stop offset=".5052" stop-color="#23ff00"/>
      <stop offset=".5246" stop-color="#56ff00"/>
      <stop offset=".545" stop-color="#83ff00"/>
      <stop offset=".5659" stop-color="#a9ff00"/>
      <stop offset=".5875" stop-color="#c8ff00"/>
      <stop offset=".6099" stop-color="#e0ff00"/>
      <stop offset=".6336" stop-color="#f1ff00"/>
      <stop offset=".6593" stop-color="#fbff00"/>
      <stop offset=".691" stop-color="#ff0"/>
      <stop offset=".7051" stop-color="#ffeb00"/>
      <stop offset=".7524" stop-color="#ffad00"/>
      <stop offset=".7993" stop-color="#ff7800"/>
      <stop offset=".8448" stop-color="#ff4d00"/>
      <stop offset=".8884" stop-color="#ff2b00"/>
      <stop offset=".9298" stop-color="#ff1300"/>
      <stop offset=".968" stop-color="#ff0500"/>
      <stop offset="1" stop-color="red"/>
    </linearGradient>
  </defs>
  <g class="cls-12">
    <g id="bkgd">
      <path id="C_Shade_bkdp" data-name="C Shade bkdp" class="cls-5" d="M524.405,180.82v-56.79c-64.85,7.86-125.83,28.22-180.49,58.61l33.4,45.88-47.3701,34.48-50.36,36.66-33.4-45.89c-46.37,43.24-84.45,95.25-111.6,153.4l53.95,17.52-18.76,57.8-18.57,57.18-53.94-17.51c-5.95,30.71-9.06,62.43-9.06,94.87s3.11,64.17,9.06,94.8801l53.94-17.52,18.47,56.8899,18.86,58.0901-53.95,17.52c27.15,58.1499,65.23,110.1599,111.6,153.3999l33.4-45.8899,50.45,36.72v.01l47.28,34.4099-33.4,45.8801c54.66,30.3899,115.64,50.75,180.49,58.6099v-56.7899h60.45V180.82h-60.45Z"/>
      <path id="S_Shade_bkdp" data-name="S Shade bkdp" class="cls-7" d="M1041.4361,985.9435l40.3396-6.4094,25.7756,162.2273-40.3396,6.4094-25.7756-162.2273ZM1159.4184,1128.0012l40.2268-7.0833-26.7327-151.8181-40.2268,7.0833,26.7327,151.8181ZM1252.0464,1107.3505l40.034-8.1024-29.1199-143.8818-40.034,8.1024,29.1199,143.8818ZM1345.6708,1083.9277l38.4918-9.4752-33.4683-135.9608-38.4918,9.4752,33.4683,135.9608ZM1439.4529,1054.7268l37.6423-12.428-41.3341-125.1936-37.6423,12.428,41.3341,125.1936ZM1534.261,1012.2257l34.8618-18.8693-56.7923-104.926-34.8618,18.8693,56.7923,104.926ZM1631.2697,938.1389l20.902-32.422-96.8686-62.4496-20.902,32.422,96.8686,62.4496ZM1668.8276,818.9015l-1.4452-38.5486-108.418,4.0646,1.4452,38.5486,108.418-4.0646ZM1645.8433,704.8776l-17.6912-33.0311-89.0855,47.7135,17.6912,33.0311,89.0855-47.7135ZM1582.3514,616.5757l-27.2376-25.7321-69.4001,73.4605,27.2376,25.7321,69.4001-73.4605ZM1512.167,555.2299l-27.3683-25.5931-67.1783,71.838,27.3683,25.5931,67.1783-71.838ZM1454.5246,498.4463l-18.7796-30.6021-80.9479,49.6752,18.7796,30.6021,80.9479-49.6752ZM1422.1242,432.8976l-3.9625-34.642-90.3298,10.3324,3.9625,34.642,90.3298-10.3324ZM1420.4685,361.707l12.8136-32.4281-81.2564-32.1077-12.8136,32.4281,81.2564,32.1077ZM1455.113,296.5774l24.6837-21.9276-54.9951-61.9076-24.6837,21.9276,54.9951,61.9076ZM1519.8302,248.1738l29.9858-13.8187-33.3846-72.4428-29.9858,13.8187,33.3846,72.4428ZM1599.4361,215.0474l31.9125-8.4673-19.4161-73.1773-31.9125,8.4673,19.4161,73.1773Z"/>
    </g>
    <g id="C_shade" data-name="C shade" class="cls-13">
      <path class="cls-3" d="M584.855,1053.24V180.82l-140.68,436.31-54.21,168.13-59.93,185.86v.01l47.28,34.4099-33.4,45.8801c54.66,30.3899,115.64,50.75,180.49,58.6099v-56.7899h60.45"/>
      <path class="cls-1" d="M267.505,616.87l-97.83,134.41-18.47-56.89-53.94,17.52c-5.95-30.71-9.06-62.43-9.06-94.88s3.11-64.16,9.06-94.87l53.94,17.51,18.57-57.18,97.73,134.3799Z"/>
      <path class="cls-2" d="M584.855,180.82v872.42l-140.68-436.11-54.32-168.39-59.91-185.7401,47.3701-34.48-33.4-45.88c54.66-30.39,115.64-50.75,180.49-58.61v56.79h60.45"/>
      <path class="cls-4" d="M389.855,448.74l-122.35,168.1299-97.83,134.41,18.86,58.09-53.95,17.5201c27.15,58.1499,65.23,110.1599,111.6,153.3999l33.4-45.8899,50.45,36.72,59.93-185.86,54.21-168.13,140.68-436.31-195,267.92Z"/>
      <path class="cls-6" d="M444.175,617.13l-54.32-168.39-59.91-185.7401-50.36,36.66-33.4-45.89c-46.37,43.24-84.45,95.25-111.6,153.4l53.95,17.52-18.76,57.8,97.73,134.3799,122.46,168.39,194.89,267.98-140.68-436.11Z"/>
    </g>
    <g id="S_shade" data-name="S shade" class="cls-11">
      <path class="cls-14" d="M1041.4361,985.9435l40.3396-6.4094,25.7756,162.2273-40.3396,6.4094-25.7756-162.2273ZM1159.4184,1128.0012l40.2268-7.0833-26.7327-151.8181-40.2268,7.0833,26.7327,151.8181ZM1252.0464,1107.3505l40.034-8.1024-29.1199-143.8818-40.034,8.1024,29.1199,143.8818ZM1345.6708,1083.9277l38.4918-9.4752-33.4683-135.9608-38.4918,9.4752,33.4683,135.9608ZM1439.4529,1054.7268l37.6423-12.428-41.3341-125.1936-37.6423,12.428,41.3341,125.1936ZM1534.261,1012.2257l34.8618-18.8693-56.7923-104.926-34.8618,18.8693,56.7923,104.926ZM1631.2697,938.1389l20.902-32.422-96.8686-62.4496-20.902,32.422,96.8686,62.4496ZM1668.8276,818.9015l-1.4452-38.5486-108.418,4.0646,1.4452,38.5486,108.418-4.0646ZM1645.8433,704.8776l-17.6912-33.0311-89.0855,47.7135,17.6912,33.0311,89.0855-47.7135ZM1582.3514,616.5757l-27.2376-25.7321-69.4001,73.4605,27.2376,25.7321,69.4001-73.4605ZM1512.167,555.2299l-27.3683-25.5931-67.1783,71.838,27.3683,25.5931,67.1783-71.838ZM1454.5246,498.4463l-18.7796-30.6021-80.9479,49.6752,18.7796,30.6021,80.9479-49.6752ZM1422.1242,432.8976l-3.9625-34.642-90.3298,10.3324,3.9625,34.642,90.3298-10.3324ZM1420.4685,361.707l12.8136-32.4281-81.2564-32.1077-12.8136,32.4281,81.2564,32.1077ZM1455.113,296.5774l24.6837-21.9276-54.9951-61.9076-24.6837,21.9276,54.9951,61.9076ZM1519.8302,248.1738l29.9858-13.8187-33.3846-72.4428-29.9858,13.8187,33.3846,72.4428ZM1599.4361,215.0474l31.9125-8.4673-19.4161-73.1773-31.9125,8.4673,19.4161,73.1773Z"/>
    </g>
    <g id="strokes">
      <g id="C">
        <g id="edges">
          <path class="cls-10" d="M350.3407,179.1248c52.9965-28.4408,111.7529-47.5421,174.0679-55.1028"/>
          <path class="cls-10" d="M136.3742,403.3881c27.0192-56.6169,64.4436-107.3147,109.799-149.6192"/>
          <path class="cls-10" d="M97.245,711.8593c-5.9345-30.6956-9.0426-62.3987-9.0426-94.8278,0-32.447,3.1115-64.1673,9.0525-94.8787"/>
          <path class="cls-10" d="M246.1749,980.2957c-46.366-43.2467-84.4438-95.265-111.59-153.4114"/>
          <path class="cls-10" d="M524.4083,1110.041c-64.8436-7.8676-125.8338-28.2313-180.4906-58.6111"/>
        </g>
        <g id="nodes">
          <rect class="cls-9" x="524.4096" y="1053.2387" width="120.8867" height="120.8867" transform="translate(1169.7059 2227.3642) rotate(180)"/>
          <rect class="cls-9" x="232.4369" y="958.3948" width="120.8867" height="120.8867" transform="translate(-69.9185 2014.924) rotate(-143.9491)"/>
          <rect class="cls-9" x="51.9399" y="710.1049" width="120.8867" height="120.8867" transform="translate(-585.7926 1115.4034) rotate(-107.9885)"/>
          <rect class="cls-9" x="51.9399" y="403.0714" width="120.8867" height="120.8867" transform="translate(-363.1811 427.2589) rotate(-72.0115)"/>
          <rect class="cls-9" x="232.4369" y="154.7815" width="120.8867" height="120.8867" transform="translate(-70.5724 213.5782) rotate(-36.0509)"/>
          <rect class="cls-9" x="524.4096" y="59.9375" width="120.8867" height="120.8867"/>
        </g>
      </g>
      <g id="P">
        <g id="nodes-2" data-name="nodes">
          <circle class="cls-8" cx="823.9547" cy="450.5064" r="55.2751"/>
          <circle class="cls-8" cx="1211.6232" cy="450.5064" r="55.2751"/>
          <circle class="cls-8" cx="823.9547" cy="118.1131" r="55.2751"/>
          <circle class="cls-8" cx="823.9547" cy="1115.2932" r="55.2751"/>
          <circle class="cls-8" cx="823.9547" cy="782.8998" r="55.2751"/>
        </g>
        <g id="edges-2" data-name="edges">
          <g>
            <line class="cls-10" x1="823.9547" y1="196.5755" x2="823.9547" y2="372.7008"/>
            <polygon class="cls-7" points="790.0485 236.4126 823.9547 202.4866 857.8609 236.4126 857.8609 207.6226 823.9547 173.7166 790.0485 207.6226 790.0485 236.4126"/>
            <polygon class="cls-7" points="790.0485 332.8637 823.9547 366.7897 857.8609 332.8637 857.8609 361.6537 823.9547 395.5597 790.0485 361.6537 790.0485 332.8637"/>
          </g>
          <g>
            <line class="cls-10" x1="823.9547" y1="506.1099" x2="823.9547" y2="705.0941"/>
            <polygon class="cls-7" points="790.0485 665.2571 823.9547 699.183 857.8609 665.2571 857.8609 694.047 823.9547 727.953 790.0485 694.047 790.0485 665.2571"/>
          </g>
          <g>
            <line class="cls-10" x1="823.9547" y1="838.5033" x2="823.9547" y2="1037.4876"/>
            <polygon class="cls-7" points="790.0485 997.6504 823.9547 1031.5764 857.8609 997.6504 857.8609 1026.4405 823.9547 1060.3465 790.0485 1026.4405 790.0485 997.6504"/>
          </g>
          <g>
            <path class="cls-10" d="M1207.049,506.1048c-25.0941,149.9386-150.5641,265.8683-304.9713,276.3505"/>
            <polygon class="cls-7" points="940.5518 746.8959 907.9779 782.1031 943.2039 814.6564 914.436 815.7824 879.2299 783.2282 911.7839 748.0219 940.5518 746.8959"/>
          </g>
          <g>
            <path class="cls-10" d="M879.2299,118.4415c156.8939,0,288.3991,108.7014,323.3121,254.9005"/>
            <polygon class="cls-7" points="1161.1272 341.2638 1201.2265 367.5819 1227.5212 327.4671 1233.3786 355.6549 1207.08 395.7501 1166.9846 369.4517 1161.1272 341.2638"/>
          </g>
        </g>
      </g>
      <g id="S">
        <polyline class="cls-10" points="1612.0728 91.848 1654.3137 82.1302 1687.9048 228.1424 1645.6639 237.8602"/>
        <polyline class="cls-10" points="1063.8954 1191.0695 1015.8543 1198.1945 979.0878 950.2905 1027.1288 943.1656"/>
      </g>
    </g>
  </g>
</svg>